<svg version="1.1" id="Layer_1" xmlns="http://www.w3.org/2000/svg" xmlns:xlink="http://www.w3.org/1999/xlink" x="0px" y="0px" width="512" height="200"
	 viewBox="0 220 1200 20" xml:space="preserve">
<path style="fill:#333333;" d="M370.898,143.68c-0.204-0.108-0.413-0.212-0.617-0.32c0.009-0.231,0.023-0.464,0.031-0.694
	c1.709-48.474-13.321-84.39-42.321-101.133c-29.001-16.744-67.62-11.802-108.745,13.916c-0.196,0.122-0.39,0.251-0.586,0.375
	c-0.195-0.123-0.39-0.252-0.586-0.375C176.949,29.732,138.33,24.79,109.329,41.533c-29,16.743-44.03,52.66-42.321,101.133
	c0.008,0.23,0.023,0.464,0.031,0.694c-0.204,0.108-0.413,0.212-0.617,0.32C23.59,166.437,0,197.411,0,230.898
	s23.59,64.461,66.424,87.218c0.204,0.108,0.413,0.212,0.617,0.32c-0.009,0.231-0.023,0.464-0.031,0.694
	c-1.709,48.474,13.321,84.391,42.321,101.134c11.29,6.518,24.031,9.75,37.816,9.749c21.626-0.001,45.813-7.958,70.929-23.665
	c0.196-0.122,0.39-0.251,0.586-0.375c0.195,0.123,0.39,0.252,0.586,0.375c25.118,15.708,49.3,23.665,70.928,23.665
	c13.783,0,26.529-3.232,37.816-9.749c29-16.743,44.031-52.66,42.321-101.134c-0.008-0.23-0.023-0.464-0.031-0.694
	c0.204-0.108,0.413-0.212,0.617-0.32c42.834-22.756,66.424-53.731,66.424-87.218S413.732,166.437,370.898,143.68z M306.005,281.326
	c-9.593,16.616-20.186,32.157-31.485,46.323c-17.917,2.702-36.673,4.105-55.859,4.105s-37.942-1.403-55.859-4.105
	c-11.299-14.166-21.892-29.707-31.485-46.323s-17.756-33.561-24.374-50.428c6.619-16.868,14.781-33.812,24.374-50.428
	s20.187-32.157,31.485-46.323c17.917-2.702,36.672-4.105,55.859-4.105s37.942,1.404,55.859,4.105
	c11.299,14.166,21.892,29.707,31.485,46.323s17.755,33.56,24.374,50.428C323.761,247.766,315.599,264.71,306.005,281.326z
	 M340.033,259.148c4.692,16.156,7.854,32.022,9.37,47.233c-13.931,6.292-29.253,11.488-45.59,15.502
	c6.856-9.736,13.385-19.943,19.513-30.558S335.029,269.954,340.033,259.148z M218.661,381.865
	c-12.415-8.918-24.575-19.59-36.22-31.731c11.859,1.07,23.964,1.62,36.22,1.62s24.361-0.55,36.22-1.62
	C243.236,362.275,231.076,372.947,218.661,381.865z M133.51,321.884c-16.337-4.015-31.659-9.209-45.59-15.502
	c1.516-15.211,4.678-31.078,9.37-47.233c5.003,10.806,10.579,21.564,16.707,32.178C120.125,301.94,126.654,312.148,133.51,321.884z
	 M113.997,170.47c-6.128,10.614-11.704,21.372-16.707,32.178c-4.692-16.156-7.854-32.023-9.37-47.233
	c13.931-6.292,29.253-11.487,45.59-15.502C126.654,149.648,120.125,159.856,113.997,170.47z M218.661,79.931
	c12.415,8.918,24.575,19.59,36.22,31.731c-11.86-1.07-23.964-1.62-36.22-1.62s-24.36,0.55-36.22,1.62
	C194.087,99.521,206.247,88.85,218.661,79.931z M323.326,170.47c-6.128-10.614-12.657-20.822-19.513-30.558
	c16.337,4.015,31.659,9.209,45.59,15.502c-1.516,15.211-4.678,31.078-9.37,47.233C335.029,191.842,329.454,181.084,323.326,170.47z
	 M290.073,51.786c10.331,0,19.734,2.341,27.918,7.067c20.821,12.021,32.21,38.575,32.447,75.224
	c-19.76-8.177-41.788-14.386-65.229-18.444c-15.232-18.268-31.62-34.238-48.578-47.261C255.961,57.38,274.127,51.786,290.073,51.786
	z M119.331,58.853c8.186-4.726,17.585-7.067,27.918-7.067c15.946,0,34.114,5.595,53.442,16.586
	c-16.958,13.023-33.347,28.993-48.578,47.261c-23.44,4.058-45.469,10.267-65.229,18.444C87.122,97.428,98.51,70.874,119.331,58.853z
	 M20,230.898c0-24.042,17.303-47.182,48.922-65.711c2.799,21.201,8.436,43.383,16.642,65.711
	c-8.206,22.329-13.843,44.51-16.642,65.711C37.303,278.08,20,254.94,20,230.898z M119.331,402.944
	c-20.821-12.021-32.209-38.575-32.446-75.224c19.76,8.177,41.788,14.386,65.229,18.444c15.234,18.271,31.625,34.243,48.587,47.268
	C168.842,411.55,140.15,414.965,119.331,402.944z M317.992,402.944c-20.821,12.021-49.512,8.607-81.369-9.512
	c16.961-13.024,33.353-28.997,48.587-47.268c23.44-4.058,45.469-10.267,65.229-18.444
	C350.201,364.368,338.813,390.923,317.992,402.944z M368.4,296.609c-2.799-21.201-8.436-43.382-16.642-65.711
	c8.206-22.329,13.843-44.51,16.642-65.712c31.619,18.53,48.922,41.669,48.922,65.711S400.02,278.08,368.4,296.609z"/>
<circle style="fill:#34a853;" cx="427.322" cy="230.898" r="32.678"/>
<circle style="fill:#4285f4;" cx="115.368" cy="409.808" r="32.678"/>
<circle style="fill:#d64937;" cx="114.331" cy="50.192" r="32.678"/>
<circle style="fill:#808083;" cx="218" cy="231" r="32.678"/>
<text x="512" y="256" font-family="sans-serif" font-size="150px" fill="#333333">lfsystems</text>
</svg>
